<svg width="249" height="284" viewBox="0 0 249 284" fill="none" xmlns="http://www.w3.org/2000/svg">
<g clip-path="url(#clip0_116_15)">
<path d="M124.25 142C163.466 142 195.25 110.216 195.25 71C195.25 31.7836 163.466 0 124.25 0C85.0336 0 53.25 31.7836 53.25 71C53.25 110.216 85.0336 142 124.25 142ZM71 172.619C29.9531 184.655 0 222.596 0 267.526C0 276.623 7.37734 284 16.4742 284H232.026C241.123 284 248.5 276.623 248.5 267.526C248.5 222.596 218.547 184.655 177.5 172.619V200.797C192.809 204.735 204.125 218.658 204.125 235.188V257.375C204.125 262.256 200.131 266.25 195.25 266.25H186.375C181.494 266.25 177.5 262.256 177.5 257.375C177.5 252.494 181.494 248.5 186.375 248.5V235.188C186.375 225.37 178.443 217.438 168.625 217.438C158.807 217.438 150.875 225.37 150.875 235.188V248.5C155.756 248.5 159.75 252.494 159.75 257.375C159.75 262.256 155.756 266.25 150.875 266.25H142C137.119 266.25 133.125 262.256 133.125 257.375V235.188C133.125 218.658 144.441 204.735 159.75 200.797V169.124C156.422 168.791 153.038 168.625 149.599 168.625H98.9008C95.4617 168.625 92.0781 168.791 88.75 169.124V205.401C101.563 209.228 110.938 221.098 110.938 235.188C110.938 252.327 97.0148 266.25 79.875 266.25C62.7352 266.25 48.8125 252.327 48.8125 235.188C48.8125 221.098 58.1867 209.228 71 205.401V172.619ZM79.875 248.5C87.2523 248.5 93.1875 242.565 93.1875 235.188C93.1875 227.81 87.2523 221.875 79.875 221.875C72.4977 221.875 66.5625 227.81 66.5625 235.188C66.5625 242.565 72.4977 248.5 79.875 248.5Z" fill="#292E3E"/>
</g>
<defs>
<clipPath id="clip0_116_15">
<rect width="248.5" height="284" fill="white"/>
</clipPath>
</defs>
</svg>
