<svg width="124" height="23" viewBox="0 0 124 23" fill="none" xmlns="http://www.w3.org/2000/svg">
<path d="M1.69531 18C1.14844 18 0.875 17.707 0.875 17.1211V2.07422C0.875 1.48828 1.14844 1.19531 1.69531 1.19531H5.78516C9.37891 1.19531 11.8086 1.92188 13.0742 3.375C14.3477 4.82812 14.9844 6.89453 14.9844 9.57422C14.9844 12.2539 14.3477 14.3281 13.0742 15.7969C11.8086 17.2656 9.37891 18 5.78516 18H1.69531ZM4.29688 15.0938H5.5625C7.98438 15.0938 9.55078 14.6445 10.2617 13.7461C10.9727 12.8398 11.3281 11.4492 11.3281 9.57422C11.3281 7.69922 10.9727 6.31641 10.2617 5.42578C9.55078 4.52734 7.98438 4.07812 5.5625 4.07812H4.29688V15.0938ZM16.9297 11.8477C16.9297 9.85547 17.4414 8.29297 18.4648 7.16016C19.4961 6.02734 21.0273 5.46094 23.0586 5.46094C25.0898 5.46094 26.6172 6.02734 27.6406 7.16016C28.6719 8.29297 29.1875 9.85547 29.1875 11.8477C29.1875 13.8398 28.6719 15.4023 27.6406 16.5352C26.6172 17.668 25.0898 18.2344 23.0586 18.2344C21.0273 18.2344 19.4961 17.668 18.4648 16.5352C17.4414 15.4023 16.9297 13.8398 16.9297 11.8477ZM20.3984 11.8477C20.3984 13.332 20.625 14.3867 21.0781 15.0117C21.5391 15.6289 22.1992 15.9375 23.0586 15.9375C23.918 15.9375 24.5742 15.6289 25.0273 15.0117C25.4883 14.3867 25.7188 13.332 25.7188 11.8477C25.7188 10.3633 25.4883 9.3125 25.0273 8.69531C24.5742 8.07031 23.918 7.75781 23.0586 7.75781C22.1992 7.75781 21.5391 8.07031 21.0781 8.69531C20.625 9.3125 20.3984 10.3633 20.3984 11.8477ZM31.0625 11.8477C31.0625 9.85547 31.5625 8.29297 32.5625 7.16016C33.5625 6.02734 35.0977 5.46094 37.168 5.46094C38.3789 5.46094 39.3203 5.62109 39.9922 5.94141C40.6641 6.26172 41.2031 6.73047 41.6094 7.34766C41.8516 7.71484 41.8125 8.00391 41.4922 8.21484L40.25 9.03516C39.8984 9.26953 39.5898 9.17969 39.3242 8.76562C39.1914 8.5625 38.9375 8.34375 38.5625 8.10938C38.1875 7.875 37.7227 7.75781 37.168 7.75781C36.2852 7.75781 35.625 8.07031 35.1875 8.69531C34.75 9.3125 34.5312 10.3633 34.5312 11.8477C34.5312 13.332 34.75 14.3867 35.1875 15.0117C35.625 15.6289 36.2852 15.9375 37.168 15.9375C37.8008 15.9375 38.3125 15.8047 38.7031 15.5391C39.0938 15.2734 39.4609 14.9297 39.8047 14.5078C40.1016 14.1484 40.4141 14.0977 40.7422 14.3555L41.832 15.2109C42.1602 15.4688 42.1797 15.8125 41.8906 16.2422C41.5859 16.6953 41.0664 17.1406 40.332 17.5781C39.6055 18.0156 38.5508 18.2344 37.168 18.2344C35.0977 18.2344 33.5625 17.668 32.5625 16.5352C31.5625 15.4023 31.0625 13.8398 31.0625 11.8477ZM44.0352 8.03906C43.5742 8.03906 43.3438 7.84375 43.3438 7.45312V6.28125C43.3438 5.89062 43.5742 5.69531 44.0352 5.69531H44.832V5.28516C44.832 4.93359 44.9141 4.61328 45.0781 4.32422L45.9805 2.74219C46.1523 2.44531 46.3555 2.29688 46.5898 2.29688H47.4102C47.8789 2.29688 48.1133 2.53125 48.1133 3V5.69531H50.0117C50.4727 5.69531 50.7031 5.89062 50.7031 6.28125V7.45312C50.7031 7.84375 50.4727 8.03906 50.0117 8.03906H48.1133V13.8516C48.1133 14.6484 48.168 15.2227 48.2773 15.5742C48.3945 15.918 48.6914 16.0898 49.168 16.0898C49.4102 16.0898 49.6836 16.0508 49.9883 15.9727C50.293 15.8867 50.5312 15.8047 50.7031 15.7266C50.9766 15.6016 51.1562 15.6914 51.2422 15.9961L51.5938 17.332C51.6641 17.5977 51.5625 17.793 51.2891 17.918C51.0312 18.0352 50.6758 18.1406 50.2227 18.2344C49.7773 18.3359 49.3281 18.3867 48.875 18.3867C47.7578 18.3867 46.8047 18.1562 46.0156 17.6953C45.2266 17.2344 44.832 16.2852 44.832 14.8477V8.03906H44.0352ZM53.1406 11.8477C53.1406 9.85547 53.6523 8.29297 54.6758 7.16016C55.707 6.02734 57.2383 5.46094 59.2695 5.46094C61.3008 5.46094 62.8281 6.02734 63.8516 7.16016C64.8828 8.29297 65.3984 9.85547 65.3984 11.8477C65.3984 13.8398 64.8828 15.4023 63.8516 16.5352C62.8281 17.668 61.3008 18.2344 59.2695 18.2344C57.2383 18.2344 55.707 17.668 54.6758 16.5352C53.6523 15.4023 53.1406 13.8398 53.1406 11.8477ZM56.6094 11.8477C56.6094 13.332 56.8359 14.3867 57.2891 15.0117C57.75 15.6289 58.4102 15.9375 59.2695 15.9375C60.1289 15.9375 60.7852 15.6289 61.2383 15.0117C61.6992 14.3867 61.9297 13.332 61.9297 11.8477C61.9297 10.3633 61.6992 9.3125 61.2383 8.69531C60.7852 8.07031 60.1289 7.75781 59.2695 7.75781C58.4102 7.75781 57.75 8.07031 57.2891 8.69531C56.8359 9.3125 56.6094 10.3633 56.6094 11.8477ZM68.6328 18C68.1641 18 67.9297 17.7656 67.9297 17.2969V6.39844C67.9297 5.92969 68.1641 5.69531 68.6328 5.69531H70.4844C70.9531 5.69531 71.1875 5.92969 71.1875 6.39844V7.35938H71.2344C71.4375 6.85938 71.7773 6.41797 72.2539 6.03516C72.7305 5.65234 73.293 5.46094 73.9414 5.46094C74.3867 5.46094 74.7539 5.51562 75.043 5.625C75.3164 5.72656 75.4219 5.91406 75.3594 6.1875L75.0312 7.58203C74.9609 7.89453 74.75 7.98828 74.3984 7.86328C74.1953 7.79297 74 7.75781 73.8125 7.75781C73.0625 7.75781 72.4414 8.20703 71.9492 9.10547C71.457 10.0039 71.2109 11.3125 71.2109 13.0312V17.2969C71.2109 17.7656 70.9766 18 70.5078 18H68.6328ZM76.3438 1.96875C76.1484 1.45312 76.332 1.19531 76.8945 1.19531H78.7578C79.2812 1.19531 79.6406 1.46484 79.8359 2.00391L83.4219 11.7891C83.6016 12.2891 83.707 12.625 83.7383 12.7969C83.7695 12.9609 83.8047 13.2383 83.8438 13.6289H83.8906C83.9297 13.2383 83.9648 12.9609 83.9961 12.7969C84.0273 12.625 84.1328 12.2891 84.3125 11.7891L87.8984 2.00391C88.0938 1.46484 88.4531 1.19531 88.9766 1.19531H90.8398C91.4023 1.19531 91.5859 1.45312 91.3906 1.96875L85.7891 17.0508C85.5547 17.6836 85.1875 18 84.6875 18H83.0469C82.5469 18 82.1797 17.6836 81.9453 17.0508L76.3438 1.96875ZM92.5391 14.7188C92.5391 13.1562 93.2852 12.0234 94.7773 11.3203C96.2695 10.6172 97.9727 10.2422 99.8867 10.1953V9.72656C99.8867 9.00781 99.707 8.5 99.3477 8.20312C98.9883 7.90625 98.4883 7.75781 97.8477 7.75781C97.3945 7.75781 96.9922 7.82422 96.6406 7.95703C96.2969 8.08203 95.9961 8.23047 95.7383 8.40234C95.4883 8.56641 95.2617 8.73438 95.0586 8.90625C94.6992 9.21875 94.4023 9.23438 94.168 8.95312L93.1953 7.75781C92.9531 7.46094 93.0117 7.15625 93.3711 6.84375C93.6445 6.60156 93.9609 6.39062 94.3203 6.21094C94.6875 6.03125 95.1719 5.86328 95.7734 5.70703C96.375 5.54297 97.1562 5.46094 98.1172 5.46094C99.7422 5.46094 100.988 5.83594 101.855 6.58594C102.73 7.33594 103.168 8.44141 103.168 9.90234V17.2969C103.168 17.7656 102.934 18 102.465 18H100.543C100.121 18 99.9102 17.7656 99.9102 17.2969V16.9453H99.8867C99.4258 17.3906 98.8711 17.7188 98.2227 17.9297C97.582 18.1328 96.9922 18.2344 96.4531 18.2344C95.1719 18.2344 94.1992 17.9219 93.5352 17.2969C92.8711 16.6641 92.5391 15.8047 92.5391 14.7188ZM96.0078 14.6484C96.0078 14.9219 96.0625 15.1602 96.1719 15.3633C96.2812 15.5586 96.4531 15.7031 96.6875 15.7969C96.9219 15.8906 97.1836 15.9375 97.4727 15.9375C97.8711 15.9375 98.2578 15.8828 98.6328 15.7734C99.0078 15.6641 99.4258 15.4062 99.8867 15V12.457C98.5742 12.6055 97.6953 12.7969 97.25 13.0312C96.8047 13.2656 96.4844 13.5078 96.2891 13.7578C96.1016 14.0078 96.0078 14.3047 96.0078 14.6484ZM107.07 18C106.602 18 106.367 17.7656 106.367 17.2969V3.45703C106.367 3.10547 106.449 2.78516 106.613 2.49609L107.516 0.914062C107.688 0.617188 107.891 0.46875 108.125 0.46875H108.945C109.414 0.46875 109.648 0.703125 109.648 1.17188V17.2969C109.648 17.7656 109.414 18 108.945 18H107.07ZM112.074 6.60938C111.863 6 111.992 5.69531 112.461 5.69531H114.559C114.918 5.69531 115.152 5.89453 115.262 6.29297L117.031 12.8438C117.117 13.1484 117.191 13.543 117.254 14.0273C117.324 14.5039 117.359 14.8086 117.359 14.9414H117.43C117.523 14.5273 117.59 14.1992 117.629 13.957C117.676 13.707 117.797 13.2266 117.992 12.5156L119.668 6.29297C119.777 5.89453 120.012 5.69531 120.371 5.69531H122.469C122.93 5.69531 123.059 6 122.855 6.60938L118.906 18.4922C118.445 19.8828 117.879 20.9688 117.207 21.75C116.535 22.5312 115.602 22.9219 114.406 22.9219C113.75 22.9219 113.164 22.8672 112.648 22.7578C112.352 22.6953 112.238 22.4922 112.309 22.1484L112.566 20.8594C112.637 20.5234 112.836 20.4062 113.164 20.5078C113.406 20.5859 113.633 20.625 113.844 20.625C114.477 20.625 114.957 20.3242 115.285 19.7227C115.621 19.1211 115.844 18.6055 115.953 18.1758L115.988 18L112.074 6.60938Z" fill="#F04130"/>
</svg>
